M48
; DRILL file {KiCad (5.99.0-12170-ge0011fcd93)} date Sun Sep 26 20:19:55 2021
; FORMAT={-:-/ absolute / metric / decimal}
; #@! TF.CreationDate,2021-09-26T20:19:55-07:00
; #@! TF.GenerationSoftware,Kicad,Pcbnew,(5.99.0-12170-ge0011fcd93)
; #@! TF.FileFunction,NonPlated,1,2,NPTH
FMAT,2
METRIC
; #@! TA.AperFunction,NonPlated,NPTH,ComponentDrill
T1C0.787
; #@! TA.AperFunction,NonPlated,NPTH,ComponentDrill
T2C1.750
; #@! TA.AperFunction,NonPlated,NPTH,ComponentDrill
T3C3.988
%
G90
G05
T1
X95.879Y-79.624
X95.879Y-82.291
X95.879Y-120.896
X95.879Y-123.563
X97.149Y-79.624
X97.149Y-82.291
X97.149Y-120.896
X97.149Y-123.563
X98.419Y-79.624
X98.419Y-82.291
X98.419Y-120.896
X98.419Y-123.563
X99.689Y-79.624
X99.689Y-82.291
X99.689Y-120.896
X99.689Y-123.563
X100.959Y-79.624
X100.959Y-82.291
X100.959Y-120.896
X100.959Y-123.563
X172.074Y-79.624
X172.074Y-82.291
X172.074Y-120.896
X172.074Y-123.563
X173.344Y-79.624
X173.344Y-82.291
X173.344Y-120.896
X173.344Y-123.563
X174.614Y-79.624
X174.614Y-82.291
X174.614Y-120.896
X174.614Y-123.563
X175.884Y-79.624
X175.884Y-82.291
X175.884Y-120.896
X175.884Y-123.563
X177.154Y-79.624
X177.154Y-82.291
X177.154Y-120.896
X177.154Y-123.563
T2
X112.388Y-92.069
X112.388Y-111.118
X122.548Y-92.069
X122.548Y-111.118
X131.436Y-92.069
X131.436Y-111.118
X141.596Y-92.069
X141.596Y-111.118
X150.485Y-92.069
X150.485Y-111.118
X160.645Y-92.069
X160.645Y-111.118
X169.534Y-92.069
X169.534Y-111.118
X179.694Y-92.069
X179.694Y-111.118
T3
X117.468Y-92.069
X117.468Y-111.118
X136.516Y-92.069
X136.516Y-111.118
X155.565Y-92.069
X155.565Y-111.118
X174.614Y-92.069
X174.614Y-111.118
T0
M30
