M48
; DRILL file {KiCad (5.99.0-12170-ge0011fcd93)} date Sun Sep 26 20:19:55 2021
; FORMAT={-:-/ absolute / metric / decimal}
; #@! TF.CreationDate,2021-09-26T20:19:55-07:00
; #@! TF.GenerationSoftware,Kicad,Pcbnew,(5.99.0-12170-ge0011fcd93)
; #@! TF.FileFunction,Plated,1,2,PTH
FMAT,2
METRIC
; #@! TA.AperFunction,Plated,PTH,ComponentDrill
T1C0.400
; #@! TA.AperFunction,Plated,PTH,ComponentDrill
T2C1.092
; #@! TA.AperFunction,Plated,PTH,ComponentDrill
T3C1.470
; #@! TA.AperFunction,Plated,PTH,ComponentDrill
T4C2.300
%
G90
G05
T1
X82.632Y-29.367
X82.632Y-76.195
X82.632Y-126.992
X82.632Y-173.82
X83.072Y-28.307
X83.072Y-30.427
X83.072Y-75.135
X83.072Y-77.255
X83.072Y-125.932
X83.072Y-128.052
X83.072Y-172.76
X83.072Y-174.88
X84.132Y-27.867
X84.132Y-30.867
X84.132Y-74.695
X84.132Y-77.695
X84.132Y-125.492
X84.132Y-128.492
X84.132Y-172.32
X84.132Y-175.32
X85.192Y-28.307
X85.192Y-30.427
X85.192Y-75.135
X85.192Y-77.255
X85.192Y-125.932
X85.192Y-128.052
X85.192Y-172.76
X85.192Y-174.88
X85.632Y-29.367
X85.632Y-76.195
X85.632Y-126.992
X85.632Y-173.82
X187.401Y-29.367
X187.401Y-76.195
X187.401Y-126.992
X187.401Y-173.82
X187.841Y-28.307
X187.841Y-30.427
X187.841Y-75.135
X187.841Y-77.255
X187.841Y-125.932
X187.841Y-128.052
X187.841Y-172.76
X187.841Y-174.88
X188.901Y-27.867
X188.901Y-30.867
X188.901Y-74.695
X188.901Y-77.695
X188.901Y-125.492
X188.901Y-128.492
X188.901Y-172.32
X188.901Y-175.32
X189.961Y-28.307
X189.961Y-30.427
X189.961Y-75.135
X189.961Y-77.255
X189.961Y-125.932
X189.961Y-128.052
X189.961Y-172.76
X189.961Y-174.88
X190.401Y-29.367
X190.401Y-76.195
X190.401Y-126.992
X190.401Y-173.82
T2
X90.799Y-86.83
X90.799Y-89.37
X90.799Y-91.91
X90.799Y-94.45
X90.799Y-96.99
X90.799Y-99.53
X90.799Y-102.07
X90.799Y-104.61
X90.799Y-107.15
X90.799Y-109.69
X90.799Y-112.23
X90.799Y-114.77
X106.039Y-86.83
X106.039Y-89.37
X106.039Y-91.91
X106.039Y-94.45
X106.039Y-96.99
X106.039Y-99.53
X106.039Y-102.07
X106.039Y-104.61
X106.039Y-107.15
X106.039Y-109.69
X106.039Y-112.23
X106.039Y-114.77
T3
X113.658Y-89.529
X113.658Y-108.578
X114.968Y-88.069
X114.968Y-107.118
X119.968Y-87.569
X119.968Y-106.618
X120.008Y-86.989
X120.008Y-106.038
X132.706Y-89.529
X132.706Y-108.578
X134.016Y-88.069
X134.016Y-107.118
X139.016Y-87.569
X139.016Y-106.618
X139.056Y-86.989
X139.056Y-106.038
X151.755Y-89.529
X151.755Y-108.578
X153.065Y-88.069
X153.065Y-107.118
X158.065Y-87.569
X158.065Y-106.618
X158.105Y-86.989
X158.105Y-106.038
X170.804Y-89.529
X170.804Y-108.578
X172.114Y-88.069
X172.114Y-107.118
X177.114Y-87.569
X177.114Y-106.618
X177.154Y-86.989
X177.154Y-106.038
T4
X84.132Y-29.367
X84.132Y-76.195
X84.132Y-126.992
X84.132Y-173.82
X188.901Y-29.367
X188.901Y-76.195
X188.901Y-126.992
X188.901Y-173.82
T0
M30
