%TF.GenerationSoftware,KiCad,Pcbnew,(5.99.0-12170-ge0011fcd93)*%
%TF.CreationDate,2021-09-26T20:19:55-07:00*%
%TF.ProjectId,dumb macropad,64756d62-206d-4616-9372-6f7061642e6b,rev?*%
%TF.SameCoordinates,Original*%
%TF.FileFunction,Profile,NP*%
%FSLAX46Y46*%
G04 Gerber Fmt 4.6, Leading zero omitted, Abs format (unit mm)*
G04 Created by KiCad (PCBNEW (5.99.0-12170-ge0011fcd93)) date 2021-09-26 20:19:55*
%MOMM*%
%LPD*%
G01*
G04 APERTURE LIST*
%TA.AperFunction,Profile*%
%ADD10C,0.100000*%
%TD*%
%TA.AperFunction,Profile*%
%ADD11C,0.050000*%
%TD*%
G04 APERTURE END LIST*
D10*
X177788800Y-123817200D02*
X192075400Y-123817200D01*
X177788800Y-120642400D02*
X177788800Y-123817200D01*
X177788800Y-120642400D02*
X184138400Y-120642400D01*
X171439200Y-120642400D02*
X101593600Y-120642400D01*
X171439200Y-123817200D02*
X171439200Y-120642400D01*
X101593600Y-123817200D02*
X171439200Y-123817200D01*
X101593600Y-120642400D02*
X101593600Y-123817200D01*
X95244000Y-120642400D02*
X88894400Y-120642400D01*
X95244000Y-123817200D02*
X95244000Y-120642400D01*
X80957400Y-123817200D02*
X95244000Y-123817200D01*
X101593600Y-82544800D02*
X171439200Y-82544800D01*
X95244000Y-79370000D02*
X80957400Y-79370000D01*
X95244000Y-82544800D02*
X95244000Y-79370000D01*
X88894400Y-82544800D02*
X95244000Y-82544800D01*
X101593600Y-79370000D02*
X101593600Y-82544800D01*
X171439200Y-79370000D02*
X101593600Y-79370000D01*
X171439200Y-82544800D02*
X171439200Y-79370000D01*
X177788800Y-82544800D02*
X184138400Y-82544800D01*
X177788800Y-79370000D02*
X177788800Y-82544800D01*
X192075400Y-79370000D02*
X177788800Y-79370000D01*
X80957400Y-176995100D02*
X192075400Y-176995100D01*
X80957400Y-150009300D02*
X80957400Y-176995100D01*
X80957400Y-123817200D02*
X80957400Y-150009300D01*
X192075400Y-176995100D02*
X192075400Y-123817200D01*
X192075400Y-79370000D02*
X192075400Y-53177900D01*
X80957400Y-26192100D02*
X80957400Y-79370000D01*
X192075400Y-26192100D02*
X80957400Y-26192100D01*
X192075400Y-53177900D02*
X192075400Y-26192100D01*
X184138400Y-120642400D02*
X184138400Y-82544800D01*
X88894400Y-82544800D02*
X88894400Y-120642400D01*
D11*
%TO.C,REF\u002A\u002A*%
X181114000Y-55702300D02*
X168114000Y-55702300D01*
X167614000Y-56202300D02*
X167614000Y-69202300D01*
X168114000Y-69702300D02*
X181114000Y-69702300D01*
X181614000Y-69202300D02*
X181614000Y-56202300D01*
X181114000Y-55702300D02*
G75*
G02*
X181614000Y-56202300I0J-500000D01*
G01*
X167614000Y-56202300D02*
G75*
G02*
X168114000Y-55702300I500000J0D01*
G01*
X168114000Y-69702300D02*
G75*
G02*
X167614000Y-69202300I0J500000D01*
G01*
X181614000Y-69202300D02*
G75*
G02*
X181114000Y-69702300I-500000J0D01*
G01*
X162065200Y-55702300D02*
X149065200Y-55702300D01*
X148565200Y-56202300D02*
X148565200Y-69202300D01*
X149065200Y-69702300D02*
X162065200Y-69702300D01*
X162565200Y-69202300D02*
X162565200Y-56202300D01*
X162065200Y-55702300D02*
G75*
G02*
X162565200Y-56202300I0J-500000D01*
G01*
X148565200Y-56202300D02*
G75*
G02*
X149065200Y-55702300I500000J0D01*
G01*
X149065200Y-69702300D02*
G75*
G02*
X148565200Y-69202300I0J500000D01*
G01*
X162565200Y-69202300D02*
G75*
G02*
X162065200Y-69702300I-500000J0D01*
G01*
X143016400Y-55702300D02*
X130016400Y-55702300D01*
X129516400Y-56202300D02*
X129516400Y-69202300D01*
X130016400Y-69702300D02*
X143016400Y-69702300D01*
X143516400Y-69202300D02*
X143516400Y-56202300D01*
X143016400Y-55702300D02*
G75*
G02*
X143516400Y-56202300I0J-500000D01*
G01*
X129516400Y-56202300D02*
G75*
G02*
X130016400Y-55702300I500000J0D01*
G01*
X130016400Y-69702300D02*
G75*
G02*
X129516400Y-69202300I0J500000D01*
G01*
X143516400Y-69202300D02*
G75*
G02*
X143016400Y-69702300I-500000J0D01*
G01*
X123967600Y-55702300D02*
X110967600Y-55702300D01*
X110467600Y-56202300D02*
X110467600Y-69202300D01*
X110967600Y-69702300D02*
X123967600Y-69702300D01*
X124467600Y-69202300D02*
X124467600Y-56202300D01*
X123967600Y-55702300D02*
G75*
G02*
X124467600Y-56202300I0J-500000D01*
G01*
X110467600Y-56202300D02*
G75*
G02*
X110967600Y-55702300I500000J0D01*
G01*
X110967600Y-69702300D02*
G75*
G02*
X110467600Y-69202300I0J500000D01*
G01*
X124467600Y-69202300D02*
G75*
G02*
X123967600Y-69702300I-500000J0D01*
G01*
X181114000Y-36653500D02*
X168114000Y-36653500D01*
X167614000Y-37153500D02*
X167614000Y-50153500D01*
X168114000Y-50653500D02*
X181114000Y-50653500D01*
X181614000Y-50153500D02*
X181614000Y-37153500D01*
X181114000Y-36653500D02*
G75*
G02*
X181614000Y-37153500I0J-500000D01*
G01*
X167614000Y-37153500D02*
G75*
G02*
X168114000Y-36653500I500000J0D01*
G01*
X168114000Y-50653500D02*
G75*
G02*
X167614000Y-50153500I0J500000D01*
G01*
X181614000Y-50153500D02*
G75*
G02*
X181114000Y-50653500I-500000J0D01*
G01*
X162065200Y-36653500D02*
X149065200Y-36653500D01*
X148565200Y-37153500D02*
X148565200Y-50153500D01*
X149065200Y-50653500D02*
X162065200Y-50653500D01*
X162565200Y-50153500D02*
X162565200Y-37153500D01*
X162065200Y-36653500D02*
G75*
G02*
X162565200Y-37153500I0J-500000D01*
G01*
X148565200Y-37153500D02*
G75*
G02*
X149065200Y-36653500I500000J0D01*
G01*
X149065200Y-50653500D02*
G75*
G02*
X148565200Y-50153500I0J500000D01*
G01*
X162565200Y-50153500D02*
G75*
G02*
X162065200Y-50653500I-500000J0D01*
G01*
X143016400Y-36653500D02*
X130016400Y-36653500D01*
X129516400Y-37153500D02*
X129516400Y-50153500D01*
X130016400Y-50653500D02*
X143016400Y-50653500D01*
X143516400Y-50153500D02*
X143516400Y-37153500D01*
X143016400Y-36653500D02*
G75*
G02*
X143516400Y-37153500I0J-500000D01*
G01*
X129516400Y-37153500D02*
G75*
G02*
X130016400Y-36653500I500000J0D01*
G01*
X130016400Y-50653500D02*
G75*
G02*
X129516400Y-50153500I0J500000D01*
G01*
X143516400Y-50153500D02*
G75*
G02*
X143016400Y-50653500I-500000J0D01*
G01*
X123967600Y-36653500D02*
X110967600Y-36653500D01*
X110467600Y-37153500D02*
X110467600Y-50153500D01*
X110967600Y-50653500D02*
X123967600Y-50653500D01*
X124467600Y-50153500D02*
X124467600Y-37153500D01*
X123967600Y-36653500D02*
G75*
G02*
X124467600Y-37153500I0J-500000D01*
G01*
X110467600Y-37153500D02*
G75*
G02*
X110967600Y-36653500I500000J0D01*
G01*
X110967600Y-50653500D02*
G75*
G02*
X110467600Y-50153500I0J500000D01*
G01*
X124467600Y-50153500D02*
G75*
G02*
X123967600Y-50653500I-500000J0D01*
G01*
%TD*%
M02*
